# xmcd
# 
# Track frame offsets:
#     150
#     25698
#     55168
#     84280
#     121242
#     139875
#     166855
#     190488
# 
# Disc length: 2741
# 
# Revision: 1
# Processed by: cddbd v1.5.2PL0 Copyright (c) Steve Scherf et al.
# Submitted via: BonkEnc v1.0.8
# 
DISCID=600ab308
DTITLE=Chuck Mangione - Together Forever [with Steve Gadd]
DYEAR=1994
DGENRE=Fusion
TTITLE0=Together forever
TTITLE1=Slo Ro
TTITLE2=Aldovio
TTITLE3=DizzyMiles
TTITLE4=I've got a crush
TTITLE5=Santa Nimpha
TTITLE6=Dove Talk
TTITLE7=Tears in Heaven
EXTD=YEAR: 1994
EXTT0=
EXTT1=
EXTT2=
EXTT3=
EXTT4=
EXTT5=
EXTT6=
EXTT7=
PLAYORDER=
